# xmcd
#
# Track frame offsets:
#	150
#	44972
#	77902
#	135828
#	192263
#	226921
#	267899
#	320825
#
# Disc length: 4411 seconds
#
# Revision: 1
# Processed by: cddbd v1.5.2PL0 Copyright (c) Steve Scherf et al.
# Submitted via: audiograbber 1.83.01
#
DISCID=6e113908
DTITLE=Bhai Satvinder Singh and Harvinder Singh - Karaj Tera Hovai Poora
DYEAR=2007
DGENRE=Gurbani
TTITLE0=jeh jaaeeai thehaa suhaelae [ang 623]
TTITLE1=aap jupaaeae jupai so naao [ang 270]
TTITLE2=thaeree suran thaerai dhuruvaar [and 1139]
TTITLE3=kaaruj thaeraa hovai pooraa har har har gun gaae mun maerae [ang 896]
TTITLE4=buhuth junum bishurae thae maadho eihu junum thumuaarae laekhae [ang 69
TTITLE4=4]
TTITLE5=har kirupaa kar kai bukhas laihu ho paapee vudd gunehugaar [ang 1416]
TTITLE6=bajat dhol mridang nagare [Sri Dasam Granth]
TTITLE7=Simran
EXTD=SIKHROOTS.COM
EXTT0=
EXTT1=
EXTT2=
EXTT3=
EXTT4=
EXTT5=
EXTT6=
EXTT7=
PLAYORDER=
